<?xml version="1.0" encoding="UTF-8" standalone="no"?>
<svg
   xmlns:dc="http://purl.org/dc/elements/1.1/"
   xmlns:cc="http://creativecommons.org/ns#"
   xmlns:rdf="http://www.w3.org/1999/02/22-rdf-syntax-ns#"
   xmlns:svg="http://www.w3.org/2000/svg"
   xmlns="http://www.w3.org/2000/svg"
   viewBox="0 0 2575.7068 261.41333"
   height="261.41333"
   width="2575.7068"
   xml:space="preserve"
   id="svg2"
   version="1.1"><metadata
     id="metadata8"><rdf:RDF><cc:Work
         rdf:about=""><dc:format>image/svg+xml</dc:format><dc:type
           rdf:resource="http://purl.org/dc/dcmitype/StillImage" /></cc:Work></rdf:RDF></metadata><defs
     id="defs6" /><g
     transform="matrix(1.3333333,0,0,-1.3333333,0,261.41333)"
     id="g10"><g
       transform="scale(0.1)"
       id="g12"><path
         id="path14"
         style="fill:#28292a;fill-opacity:1;fill-rule:nonzero;stroke:none"
         d="m 5176.29,596.109 c -132.02,-104 -295.72,-178.988 -532.31,-178.988 H 4304.69 V 1566.36 h 339.29 c 473.19,0 709.73,-99.44 709.73,-574.626 0,-215.734 -84.98,-322.785 -177.42,-395.625 z M 5302.38,1827.8 c -173.29,87.19 -381.34,130.75 -624.08,130.75 H 3819.1 V 24.9102 h 859.2 c 244.79,0 453.85,44.039 627.17,132.2698 173.26,88.191 292.88,222.511 396.89,379.808 92.22,139.422 102.63,220.192 102.63,454.746 0,175.736 -4.16,324.936 -96.48,489.906 -92.35,165.01 -232.88,259.03 -406.13,346.16" /><path
         id="path16"
         style="fill:#28292a;fill-opacity:1;fill-rule:nonzero;stroke:none"
         d="M 7099.29,476.262 C 7035.96,397.371 6947.31,358 6833.17,358 c -118.26,0 -209.11,38.898 -272.4,116.73 -63.32,77.782 -94.9,190.34 -94.9,337.711 0,147.297 32.69,262.499 98.06,345.539 65.37,82.97 155.09,124.5 269.24,124.5 114.14,0 202.79,-40 266.12,-119.83 63.27,-79.93 94.96,-194.548 94.96,-343.959 0,-149.461 -31.69,-263.562 -94.96,-342.429 z m 94.96,904.798 c -37.99,67.53 -91.54,124.24 -161.85,169.12 -97.6,62.28 -209.59,93.39 -336.2,93.39 -136.95,0 -257.87,-34.79 -362.61,-104.27 -104.85,-69.58 -186.77,-167.12 -245.95,-292.61 -59.12,-125.56 -88.65,-270.335 -88.65,-434.249 0,-163.972 29,-307.121 87.13,-429.57 58.06,-122.449 140.05,-216.84 245.88,-283.2616 105.85,-66.4297 227.25,-99.5898687 364.2,-99.5898687 126.61,0 238.6,30.0507687 336.2,90.2304687 70.31,43.41 123.86,99.699 161.85,167.961 V 24.9297 h 463.79 V 1603.1 h -463.79 v -222.04" /><path
         id="path18"
         style="fill:#28292a;fill-opacity:1;fill-rule:nonzero;stroke:none"
         d="m 8690.29,1958.55 h -470.04 v -355.47 h -298.81 v -351.74 h 298.81 V 628.801 c 0,-197.18 51.4,-351.27 154.14,-462.262 C 8477.08,55.4883 8625.97,0 8821.04,0 c 49.82,0 96.53,3.14844 140.11,9.35156 43.56,6.19924 87.12,17.60934 130.7,34.26954 V 404.66 c -31.12,-6.211 -58.65,-10.879 -82.46,-13.98 -23.91,-3.149 -48.24,-4.68 -73.21,-4.68 -43.56,0 -84.03,7.781 -121.33,23.328 -37.38,15.563 -67.48,42.043 -90.3,79.41 -22.86,37.313 -34.26,87.141 -34.26,149.41 v 613.192 h 401.56 v 351.74 h -401.56 v 355.47" /><path
         id="path20"
         style="fill:#28292a;fill-opacity:1;fill-rule:nonzero;stroke:none"
         d="M 10356.4,476.262 C 10293.1,397.371 10204.4,358 10090.3,358 c -118.26,0 -209.12,38.898 -272.39,116.73 -63.33,77.782 -94.91,190.34 -94.91,337.711 0,147.297 32.69,262.499 98.06,345.539 65.38,82.97 155.09,124.5 269.24,124.5 114.1,0 202.8,-40 266.1,-119.83 63.3,-79.93 95,-194.548 95,-343.959 0,-149.461 -31.7,-263.562 -95,-342.429 z m 95,904.798 c -38,67.53 -91.6,124.24 -161.9,169.12 -97.6,62.28 -209.6,93.39 -336.17,93.39 -136.95,0 -257.88,-34.79 -362.6,-104.27 -104.86,-69.58 -186.78,-167.12 -245.96,-292.61 -59.12,-125.56 -88.65,-270.335 -88.65,-434.249 0,-163.972 29,-307.121 87.12,-429.57 58.03,-122.449 140.06,-216.84 245.9,-283.2616 105.84,-66.4297 227.24,-99.5898687 364.19,-99.5898687 126.57,0 238.57,30.0507687 336.17,90.2304687 70.3,43.41 123.9,99.699 161.9,167.961 V 24.9297 h 463.8 V 1603.1 h -463.8 v -222.04" /><path
         id="path22"
         style="fill:#28292a;fill-opacity:1;fill-rule:nonzero;stroke:none"
         d="m 12353.3,585 -714.2,1373.58 h -386 V 0.03125 h 426.5 V 936.422 L 12193.2,0.03125 h 314.4 l 508,947.05875 2.5,-947.05875 h 429.6 V 1958.58 h -382.9 L 12353.3,585" /><path
         id="path24"
         style="fill:#28292a;fill-opacity:1;fill-rule:nonzero;stroke:none"
         d="m 14157.2,1008.59 c 13.8,76.78 39.3,139.58 76.3,188.29 59.1,77.83 142.7,116.73 250.6,116.73 99.6,0 175.8,-33.74 228.8,-101.17 39.2,-49.97 63.2,-118.04 72.2,-203.85 z m 697.3,536.93 c -108,65.37 -235.6,98.07 -382.9,98.07 -153.6,0 -287.9,-34.79 -403.1,-104.32 -115.2,-69.53 -205.9,-166.54 -272.4,-291.04 -66.4,-124.49 -99.6,-267.707 -99.6,-429.57 0,-168.07 34.3,-313.371 102.7,-435.769 68.5,-122.45 166.6,-216.891 294.2,-283.2621 127.7,-66.4297 279.6,-99.5898375 456,-99.5898375 112.1,0 223.1,17.0820375 333.1,51.3398375 109.9,34.2109 203.4,81.4101 280.2,141.6331 l -124.5,317.527 c -68.5,-49.82 -143.2,-88.289 -224.2,-115.187 -80.9,-27.024 -162.9,-40.473 -245.9,-40.473 -143.2,0 -249.5,39.41 -319.1,118.289 -58.3,66.113 -91.8,167.07 -101.2,301.922 h 1042.9 v 68.48 c 0,163.92 -29.1,305.55 -87.2,424.89 -58.1,119.3 -141.2,211.68 -249,277.06" /><g
         transform="scale(1.04648)"
         id="g26"><path
           id="path28"
           style="fill:#28292a;fill-opacity:1;fill-rule:nonzero;stroke:none"
           d="m 15766.2,455.095 c -60.6,-75.375 -145.3,-112.997 -254.4,-112.997 -109.1,0 -194.8,38.671 -257.2,116.006 -62.5,77.346 -93.7,188.376 -93.7,333.154 0,138.76 30.1,245.872 90.6,321.252 60.5,75.33 147.3,112.99 260.3,112.99 109.1,0 193.8,-38.67 254.4,-116 60.4,-77.35 90.7,-185.409 90.7,-324.222 0,-144.782 -30.3,-254.808 -90.7,-330.183 z m 84.8,872.255 c -36,59.7 -84.9,110.98 -148.8,152.46 -93.2,60.51 -200.3,90.75 -321.2,90.75 -130.9,0 -246.9,-32.25 -348.1,-96.67 -101.1,-64.44 -179.5,-155.18 -235,-272.2 -55.5,-117 -83.2,-253.848 -83.2,-410.432 0,-158.694 28.3,-297.051 84.8,-414.95 56.5,-118.025 134.8,-210.22 234.9,-276.6701 100.1,-66.4315 215.7,-99.6192363 346.6,-99.6192363 120.9,0 228,28.7159363 321.2,86.2112363 67.2,41.4821 118.4,95.2741 154.7,160.5001 V 23.8149 H 16300 V 1871.57 h -449 v -544.22" /></g><g
         transform="scale(1.08726)"
         id="g30"><path
           id="path32"
           style="fill:#28292a;fill-opacity:1;fill-rule:nonzero;stroke:none"
           d="M 15931.1,28.6307 H 16300 V 1480.15 h -368.9 V 28.6307" /></g><g
         transform="scale(1.18514)"
         id="g34"><path
           id="path36"
           style="fill:#28292a;fill-opacity:1;fill-rule:nonzero;stroke:none"
           d="m 16208.1,661.887 c -61.3,63.066 -160.3,110.325 -296.8,141.858 l -223.3,49.888 c -56,13.969 -95,29.757 -116.9,47.265 -21.9,17.479 -32.8,41.151 -32.8,70.957 0,40.215 18.3,71.745 55.2,94.535 36.7,22.75 87.5,34.14 152.3,34.14 66.6,0 135.3,-12.28 206.2,-36.8 70.9,-24.52 140.5,-60.39 208.8,-107.663 l 110.3,265.253 c -73.5,52.55 -155,93.26 -244.2,122.13 -89.4,28.91 -182.2,43.36 -278.5,43.36 -113.8,0 -213.6,-18.39 -299.4,-55.15 -85.8,-36.77 -152.8,-87.14 -200.9,-151.05 -48.2,-63.94 -72.3,-137.01 -72.3,-219.312 0,-101.551 30.2,-182.959 90.7,-244.245 60.4,-61.326 155.3,-105.051 284.9,-131.344 l 218,-52.508 c 66.5,-15.778 112.9,-32.849 139.3,-51.207 26.2,-18.412 39.4,-44.256 39.4,-77.477 0,-38.576 -18.4,-68.778 -55.2,-90.63 -36.8,-21.955 -89.3,-32.865 -157.6,-32.865 -87.6,0 -174.7,13.576 -261.4,40.712 -86.6,27.127 -165,66.119 -235,116.93 L 15131.2,162.84 c 147.1,-108.5941 347.5,-162.8136318 601.4,-162.8136318 176.9,0 315.6,36.7539318 416.4,110.2716318 100.6,73.571 151,173.391 151,299.45 0,105.051 -30.7,189.083 -91.9,252.139" /></g><path
         id="path38"
         style="fill:#57c6c0;fill-opacity:1;fill-rule:nonzero;stroke:none"
         d="M 2785.94,1931.64 H 2306.6 c -131.9,0 -239.82,-107.93 -239.82,-239.84 v -479.32 c 0,-12.64 1.01,-25.05 2.92,-37.17 0.13,-2.91 0.23,-5.84 0.23,-8.78 0,-107.08 -86.8,-193.878 -193.88,-193.878 -0.76,0 -1.52,0.051 -2.28,0.059 v -0.059 h -259.81 c -107.07,0 -193.88,86.798 -193.88,193.878 0,12.21 1.18,24.14 3.34,35.72 v 0 c 2.11,12.76 3.26,25.82 3.26,39.14 v 479.33 c 0,131.91 -107.92,239.83 -239.82,239.83 H 707.531 c -131.902,0 -239.824,-107.92 -239.824,-239.83 v -479.33 c 0,-3.52 0.117,-7.03 0.266,-10.52 -6.328,-99.94 -88.371,-179.28 -189.426,-181.34 l 0.058,-0.1 H 118.852 C 53.4805,1049.43 0.00390625,995.945 0.00390625,930.578 V 693.039 c 0,-65.367 53.47659375,-118.84 118.84809375,-118.84 h 237.539 c 65.359,0 118.847,53.473 118.847,118.84 v 116.359 h 0.008 c 0,0.172 -0.008,0.332 -0.008,0.5 v 0.024 c 0,107.066 86.805,193.868 193.875,193.868 2.981,0 5.918,-0.18 8.867,-0.33 9.7,-1.2 19.543,-1.89 29.551,-1.89 h 328.389 l -0.02,-0.05 c 0.61,0.01 1.19,0.05 1.79,0.05 107.08,0 193.87,-86.808 193.87,-193.879 0,-11.519 -1.06,-22.793 -2.98,-33.769 l 0.15,-0.024 c -2.33,-13.359 -3.62,-27.07 -3.62,-41.07 v -479.34 c 0,-131.898 107.93,-239.8161 239.83,-239.8161 h 479.33 c 131.9,0 239.82,107.9181 239.82,239.8161 v 479.34 c 0,11.492 -0.87,22.801 -2.45,33.883 h 0.5 c -0.24,3.988 -0.41,8 -0.41,12.07 0,107.071 86.79,193.864 193.86,193.871 h 410.35 c 131.9,0 239.82,107.918 239.82,239.828 v 479.32 c 0,131.91 -107.92,239.84 -239.82,239.84" /><path
         id="path40"
         style="fill:#57c6c0;fill-opacity:1;fill-rule:nonzero;stroke:none"
         d="m 2906.92,612.699 h -237.54 c -65.37,0 -118.85,-53.48 -118.85,-118.847 V 256.32 c 0,-65.371 53.48,-118.851 118.85,-118.851 h 237.54 c 65.36,0 118.84,53.48 118.84,118.851 v 237.532 c 0,65.367 -53.48,118.847 -118.84,118.847" /></g></g></svg>
